<svg xmlns="http://www.w3.org/2000/svg" viewBox="0 0 960 260" role="img" aria-labelledby="title desc">
  <title id="title">advent</title>
  <desc id="desc">A colorful logo for the advent Raspberry Pi LED matrix scene runner.</desc>
  <defs>
    <linearGradient id="bg" x1="0%" y1="0%" x2="100%" y2="100%">
      <stop offset="0%" stop-color="#08111b"/>
      <stop offset="50%" stop-color="#10253b"/>
      <stop offset="100%" stop-color="#1d3b2f"/>
    </linearGradient>
    <linearGradient id="accent" x1="0%" y1="0%" x2="100%" y2="0%">
      <stop offset="0%" stop-color="#f97316"/>
      <stop offset="35%" stop-color="#ef4444"/>
      <stop offset="70%" stop-color="#22c55e"/>
      <stop offset="100%" stop-color="#38bdf8"/>
    </linearGradient>
    <filter id="shadow" x="-20%" y="-20%" width="140%" height="140%">
      <feDropShadow dx="0" dy="10" stdDeviation="14" flood-color="#020617" flood-opacity="0.35"/>
    </filter>
  </defs>

  <rect width="960" height="260" rx="30" fill="url(#bg)"/>

  <g transform="translate(40 40)" filter="url(#shadow)">
    <rect width="180" height="180" rx="28" fill="#09121d" stroke="#2a435e" stroke-width="3"/>
    <g transform="translate(22 22)">
      <rect x="0" y="0" width="28" height="28" rx="8" fill="#ef4444"/>
      <rect x="36" y="0" width="28" height="28" rx="8" fill="#f97316"/>
      <rect x="72" y="0" width="28" height="28" rx="8" fill="#facc15"/>
      <rect x="108" y="0" width="28" height="28" rx="8" fill="#22c55e"/>

      <rect x="0" y="36" width="28" height="28" rx="8" fill="#38bdf8"/>
      <rect x="36" y="36" width="28" height="28" rx="8" fill="#a78bfa"/>
      <rect x="72" y="36" width="28" height="28" rx="8" fill="#f43f5e"/>
      <rect x="108" y="36" width="28" height="28" rx="8" fill="#14b8a6"/>

      <rect x="0" y="72" width="28" height="28" rx="8" fill="#0f172a"/>
      <rect x="36" y="72" width="28" height="28" rx="8" fill="#22c55e"/>
      <rect x="72" y="72" width="28" height="28" rx="8" fill="#0f172a"/>
      <rect x="108" y="72" width="28" height="28" rx="8" fill="#38bdf8"/>

      <rect x="0" y="108" width="28" height="28" rx="8" fill="#0f172a"/>
      <rect x="36" y="108" width="28" height="28" rx="8" fill="#0f172a"/>
      <rect x="72" y="108" width="28" height="28" rx="8" fill="#f97316"/>
      <rect x="108" y="108" width="28" height="28" rx="8" fill="#0f172a"/>
    </g>
    <circle cx="150" cy="30" r="8" fill="#22c55e"/>
  </g>

  <g transform="translate(252 68)">
    <text x="0" y="48" font-family="'Avenir Next', 'Segoe UI', sans-serif" font-size="70" font-weight="800" fill="#f8fafc" letter-spacing="1">
      advent
    </text>
    <rect x="0" y="70" width="500" height="10" rx="5" fill="url(#accent)"/>
    <text x="0" y="118" font-family="'Avenir Next', 'Segoe UI', sans-serif" font-size="26" font-weight="600" fill="#dbeafe">
      C# LED matrix scenes for Raspberry Pi
    </text>
    <text x="0" y="154" font-family="'Avenir Next', 'Segoe UI', sans-serif" font-size="20" font-weight="500" fill="#bfdbfe">
      Clock. Weather. Pixel-art nonsense.
    </text>
    <text x="0" y="184" font-family="'Avenir Next', 'Segoe UI', sans-serif" font-size="20" font-weight="500" fill="#bfdbfe">
      Web control. Appliance mode.
    </text>
  </g>
</svg>
